<?xml version="1.0" encoding="UTF-8"?>
<svg id="Layer_2" xmlns="http://www.w3.org/2000/svg" viewBox="0 0 307.95 346.95">
  <defs>
    <style>
      .cls-1 {
        fill: #fff;
      }
    </style>
  </defs>
  <g id="Layer_1-2" data-name="Layer_1">
    <g>
      <path class="cls-1" d="M50.44,81.9c23.19-13.38,45.61-25.9,67.48-39.32,3.82-2.34,7.15-8.25,7.61-12.82C127.28,12.26,138.3.09,154.09,0c15.48-.09,26.62,12.39,28.34,29.94.44,4.52,3.99,10.29,7.84,12.65,21.87,13.41,44.27,25.96,66.32,38.71,6.26-2.73,11.98-6.36,18.19-7.7,13.6-2.94,25.84,4.27,30.97,17,5.07,12.58,1.33,26.9-11,33.39-8.24,4.33-9.89,9.43-9.69,17.78.53,21.88-.29,43.8.54,65.66.18,4.81,3.83,11.03,7.83,13.88,13.76,9.79,18.49,24.58,10.8,38.38-7.81,14.02-24.17,17.82-39.67,10.12-3.76-1.87-9.98-2.6-13.38-.76-20.89,11.32-41.51,23.18-61.68,35.74-3.72,2.32-6.6,8.44-7.08,13.09-1.69,16.49-12.75,28.69-27.85,29.07-15.54.38-27.19-12.15-29.1-29.32-.55-4.94-4.23-11.18-8.39-13.77-19.34-12.09-39.16-23.45-59.28-34.19-3.81-2.03-10.51-1.62-14.58.34-14.99,7.21-30.75,3.91-38.83-9.31-8.58-14.03-4.06-29.42,10.41-39.43,3.76-2.6,7.49-8.24,7.63-12.6.74-23.77.61-47.59.08-71.37-.08-3.7-2.91-8.66-6.01-10.76C.03,115.33-4.65,99.89,4.9,85.39c9.1-13.82,25.06-16.15,41.3-6.03,1.2.75,2.42,1.45,4.24,2.54ZM234.06,133.14c-1.54-.48-3.08-.96-4.62-1.45,1.12-3.26,1.55-7.07,3.57-9.61,1.93-2.43,5.52-3.56,8.39-5.25,15.31-8.97,15.6-23.05.57-31.78-18.5-10.74-37.03-21.43-55.6-32.07-14.77-8.47-26.75-1.66-26.92,15.21-.04,3.81.67,7.81-.31,11.35-.66,2.38-3.71,4.1-5.69,6.11-1.6-1.93-4.3-3.71-4.58-5.82-.69-5.15-.07-10.45-.34-15.67-.55-10.79-13.63-18.64-22.94-13.41-21.13,11.89-42.12,24.04-62.98,36.38-9.57,5.66-9.38,21.46.03,27.43,4.01,2.54,8.55,4.39,12.17,7.36,1.95,1.6,2.49,4.93,3.66,7.48-3.08.37-6.68,1.93-9.14.87-6.5-2.81-12.5-6.76-17.75-9.72-16.61,3.56-19.11,14.33-18.18,28.49,1.07,16.11,1.03,32.4,0,48.51-.89,14.05,1.09,25.18,17.91,28.79,7.26-3.97,15.5-8.48,23.74-12.99,1.18.61,2.36,1.21,3.54,1.82-1.14,3.27-1.59,7.09-3.62,9.65-1.93,2.43-5.52,3.56-8.39,5.24-15.34,8.97-15.63,23.02-.57,31.76,18.5,10.74,37.04,21.42,55.6,32.06,14.76,8.46,26.77,1.66,26.95-15.19.04-3.81-.68-7.82.32-11.35.67-2.39,3.73-4.11,5.71-6.13,1.59,1.93,4.28,3.71,4.56,5.82.69,5.15.07,10.45.33,15.67.54,10.78,13.65,18.65,22.94,13.42,21.12-11.9,42.16-23.97,62.86-36.58,3.14-1.91,5.08-6.82,6.28-10.74,4.02-13.11-6.2-16.81-14.85-21.57-5.71-3.14-13.25-6.26-2.87-13.6,7.83,4.39,15.67,8.79,22.58,12.66,16.55-3.58,19.11-14.31,18.16-28.48-1.08-16.11-1.03-32.4-.01-48.51.88-14.04-1.05-25.19-18.05-28.8-6.78,3.81-14.63,8.21-22.48,12.61Z"/>
      <path class="cls-1" d="M75.93,173.73c-.17-43.49,33.92-78,77.39-78.35,44.05-.35,78.93,34.41,78.73,78.45-.19,43.4-34.67,77.67-78.12,77.66-43.44-.01-77.83-34.3-78-77.76ZM139.43,225.16l2.73.83c15.03-21.18,30.05-42.37,46.33-65.31-10.32-.67-17.59-1.14-26.54-1.73v-41.46c-15.09,21.31-27.84,39.32-41.5,58.61,7.25,1.44,12.5,2.48,18.98,3.76v45.29Z"/>
    </g>
  </g>
</svg>