<svg width="101" height="101" viewBox="0 0 101 101" fill="none" xmlns="http://www.w3.org/2000/svg">
<g clip-path="url(#clip0_551_133)">
<path d="M46.2917 46.2917H0V12.625C0 9.27664 1.33013 6.06542 3.69778 3.69778C6.06542 1.33013 9.27664 0 12.625 0L46.2917 0V46.2917ZM8.41667 37.875H37.875V8.41667H12.625C11.5089 8.41667 10.4385 8.86004 9.64926 9.64926C8.86004 10.4385 8.41667 11.5089 8.41667 12.625V37.875Z" fill="white"/>
<path d="M100.999 46.2917H54.7075V0H88.3741C91.7225 0 94.9337 1.33013 97.3014 3.69778C99.669 6.06542 100.999 9.27664 100.999 12.625V46.2917ZM63.1242 37.875H92.5825V12.625C92.5825 11.5089 92.1391 10.4385 91.3499 9.64926C90.5607 8.86004 89.4903 8.41667 88.3741 8.41667H63.1242V37.875Z" fill="white"/>
<path d="M46.2917 101H12.625C9.27664 101 6.06542 99.6695 3.69778 97.3018C1.33013 94.9342 0 91.723 0 88.3746L0 54.708H46.2917V101ZM8.41667 63.1247V88.3746C8.41667 89.4908 8.86004 90.5612 9.64926 91.3504C10.4385 92.1396 11.5089 92.583 12.625 92.583H37.875V63.1247H8.41667Z" fill="white"/>
<path d="M88.3741 101H54.7075V54.708H100.999V88.3746C100.999 91.723 99.669 94.9342 97.3014 97.3018C94.9337 99.6695 91.7225 101 88.3741 101ZM63.1242 92.583H88.3741C89.4903 92.583 90.5607 92.1396 91.3499 91.3504C92.1391 90.5612 92.5825 89.4908 92.5825 88.3746V63.1247H63.1242V92.583Z" fill="white"/>
</g>
<defs>
<clipPath id="clip0_551_133">
<rect width="101" height="101" fill="white"/>
</clipPath>
</defs>
</svg>
