<svg width="114" height="114" viewBox="0 0 114 114" fill="none" xmlns="http://www.w3.org/2000/svg">
<g clip-path="url(#clip0_551_145)">
<path d="M33.25 57H57V66.5H33.25V57ZM80.75 38H33.25V47.5H80.75V38ZM80.75 19H33.25V28.5H80.75V19ZM95 92.359V114L85.5 104.5L76 114V92.359C72.3774 90.2776 69.5447 87.0568 67.9432 83.198C66.3416 79.3392 66.061 75.0591 67.145 71.0242C68.2291 66.9893 70.617 63.4262 73.9368 60.8897C77.2566 58.3531 81.3221 56.9856 85.5 57C87.1057 57.0201 88.7022 57.2468 90.25 57.6745V14.25C90.25 12.9902 89.7496 11.782 88.8588 10.8912C87.968 10.0004 86.7598 9.5 85.5 9.5H28.5C27.2402 9.5 26.032 10.0004 25.1412 10.8912C24.2504 11.782 23.75 12.9902 23.75 14.25V95H66.5V104.5H14.25V14.25C14.25 10.4707 15.7513 6.84612 18.4237 4.17373C21.0961 1.50133 24.7207 0 28.5 0L85.5 0C89.2793 0 92.9039 1.50133 95.5763 4.17373C98.2487 6.84612 99.75 10.4707 99.75 14.25V63.5645C101.611 65.654 102.98 68.1332 103.759 70.8205C104.538 73.5079 104.705 76.3353 104.25 79.0959C103.795 81.8564 102.728 84.4802 101.127 86.7751C99.5267 89.0699 97.4332 90.9778 95 92.359ZM95 76C95 74.1211 94.4428 72.2843 93.399 70.7221C92.3551 69.1598 90.8714 67.9422 89.1355 67.2231C87.3996 66.5041 85.4895 66.316 83.6466 66.6825C81.8038 67.0491 80.1111 67.9539 78.7825 69.2825C77.4539 70.6111 76.5491 72.3038 76.1825 74.1466C75.816 75.9895 76.0041 77.8996 76.7231 79.6355C77.4422 81.3714 78.6598 82.8551 80.2221 83.899C81.7843 84.9428 83.6211 85.5 85.5 85.5C88.0196 85.5 90.4359 84.4991 92.2175 82.7175C93.9991 80.9359 95 78.5196 95 76Z" fill="white"/>
</g>
<defs>
<clipPath id="clip0_551_145">
<rect width="114" height="114" fill="white"/>
</clipPath>
</defs>
</svg>
