<svg width="108" height="108" viewBox="0 0 108 108" fill="none" xmlns="http://www.w3.org/2000/svg">
<g clip-path="url(#clip0_551_111)">
<path d="M54 0C43.3198 0 32.8795 3.16704 23.9992 9.10064C15.119 15.0342 8.19766 23.4679 4.11053 33.3351C0.0233974 43.2023 -1.04598 54.0599 1.03762 64.5349C3.12122 75.0098 8.26422 84.6317 15.8163 92.1838C23.3683 99.7358 32.9902 104.879 43.4651 106.962C53.9401 109.046 64.7977 107.977 74.6649 103.889C84.5321 99.8024 92.9658 92.8811 98.8994 84.0008C104.833 75.1205 108 64.6802 108 54C108 39.6783 102.311 25.9432 92.1838 15.8162C82.0568 5.68927 68.3217 0 54 0V0ZM98.7705 49.5H58.5V9.2295C68.8223 10.2805 78.4657 14.861 85.8024 22.1977C93.139 29.5343 97.7195 39.1778 98.7705 49.5ZM9.00002 54C9.01409 42.8488 13.1627 32.0989 20.6435 23.8292C28.1244 15.5595 38.406 10.3576 49.5 9.2295V55.863L82.458 88.821C75.8693 94.2185 67.8831 97.6335 59.4289 98.6687C50.9748 99.7039 42.4006 98.3166 34.7042 94.6684C27.0078 91.0201 20.506 85.2609 15.9554 78.0611C11.4049 70.8614 8.99281 62.5173 9.00002 54ZM88.821 82.458L64.863 58.5H98.7705C97.893 67.2934 94.4309 75.6299 88.821 82.458Z" fill="white"/>
</g>
<defs>
<clipPath id="clip0_551_111">
<rect width="108" height="108" fill="white"/>
</clipPath>
</defs>
</svg>
