<svg width="108" height="108" viewBox="0 0 108 108" fill="none" xmlns="http://www.w3.org/2000/svg">
<g clip-path="url(#clip0_551_149)">
<path d="M54 0C43.3198 0 32.8795 3.16704 23.9992 9.10064C15.119 15.0342 8.19766 23.4679 4.11053 33.3351C0.0233974 43.2023 -1.04598 54.0599 1.03762 64.5349C3.12122 75.0098 8.26422 84.6317 15.8163 92.1838C23.3683 99.7358 32.9902 104.879 43.4651 106.962C53.9401 109.046 64.7977 107.977 74.6649 103.889C84.5321 99.8024 92.9658 92.8811 98.8994 84.0008C104.833 75.1205 108 64.6802 108 54C107.985 39.6831 102.29 25.9569 92.1667 15.8333C82.0431 5.70973 68.317 0.0154849 54 0V0ZM92.9115 31.5H78.417C75.1724 23.9804 70.9001 16.9474 65.7225 10.602C77.1817 13.7202 86.9504 21.2286 92.9115 31.5ZM74.25 54C74.2131 58.5816 73.4911 63.132 72.108 67.5H35.892C34.509 63.132 33.787 58.5816 33.75 54C33.787 49.4184 34.509 44.868 35.892 40.5H72.108C73.4911 44.868 74.2131 49.4184 74.25 54ZM39.501 76.5H68.499C64.6796 84.0408 59.7967 90.9938 54 97.146C48.2012 90.9955 43.3181 84.0422 39.501 76.5ZM39.501 31.5C43.3205 23.9592 48.2033 17.0062 54 10.854C59.7989 17.0045 64.6819 23.9578 68.499 31.5H39.501ZM42.3 10.602C37.1145 16.946 32.8347 23.9791 29.583 31.5H15.0885C21.0549 21.2239 30.8325 13.7149 42.3 10.602ZM11.0745 40.5H26.55C25.3834 44.9062 24.7786 49.4421 24.75 54C24.7786 58.5579 25.3834 63.0938 26.55 67.5H11.0745C8.30856 58.7125 8.30856 49.2875 11.0745 40.5ZM15.0885 76.5H29.583C32.8347 84.0209 37.1145 91.054 42.3 97.398C30.8325 94.2851 21.0549 86.7761 15.0885 76.5ZM65.7225 97.398C70.9001 91.0526 75.1724 84.0196 78.417 76.5H92.9115C86.9504 86.7714 77.1817 94.2798 65.7225 97.398ZM96.9255 67.5H81.45C82.6166 63.0938 83.2214 58.5579 83.25 54C83.2214 49.4421 82.6166 44.9062 81.45 40.5H96.9165C99.6825 49.2875 99.6825 58.7125 96.9165 67.5H96.9255Z" fill="white"/>
</g>
<defs>
<clipPath id="clip0_551_149">
<rect width="108" height="108" fill="white"/>
</clipPath>
</defs>
</svg>
