<svg width="118" height="123" viewBox="0 0 118 123" fill="none" xmlns="http://www.w3.org/2000/svg">
<path fill-rule="evenodd" clip-rule="evenodd" d="M117.3 122.82C116.346 122.698 115.407 122.477 114.5 122.16C113.317 121.739 112.204 121.143 111.2 120.39C110.563 119.91 109.971 119.375 109.43 118.79C109.22 118.56 109.01 118.33 108.81 118.09C108.313 118.631 107.779 119.136 107.21 119.6C106.246 120.38 105.184 121.029 104.05 121.53C102.375 122.276 100.563 122.665 98.7295 122.67C97.7971 122.667 96.868 122.56 95.9595 122.35C95.0561 122.139 94.1802 121.823 93.3495 121.41C92.3556 120.917 91.431 120.295 90.5995 119.56C90.1455 119.147 89.718 118.706 89.3195 118.24C89.0895 118.52 88.8495 118.78 88.6095 119.03C88.0488 119.626 87.4364 120.172 86.7795 120.66C85.9294 121.306 84.9938 121.831 83.9995 122.22C83.0389 122.588 82.0267 122.804 80.9995 122.86C79.9503 122.919 78.8982 122.818 77.8795 122.56C76.8062 122.293 75.7736 121.882 74.8095 121.34C73.8358 120.798 72.9181 120.162 72.0695 119.44C71.5295 118.98 70.9795 118.44 70.4395 117.91C69.9953 118.462 69.5106 118.98 68.9895 119.46C68.1294 120.255 67.1636 120.929 66.1195 121.46C65.328 121.854 64.4966 122.163 63.6395 122.38C61.9165 122.81 60.119 122.848 58.3795 122.49C57.4974 122.307 56.6386 122.025 55.8195 121.65C54.6673 121.137 53.5933 120.464 52.6295 119.65C52.0213 119.148 51.456 118.596 50.9395 118C50.2054 119.046 49.3189 119.976 48.3095 120.76C47.2468 121.56 46.0321 122.135 44.7395 122.45C43.4026 122.765 42.018 122.822 40.6595 122.62C39.3328 122.557 38.0223 122.301 36.7695 121.86C35.5868 121.439 34.4742 120.843 33.4695 120.09C32.831 119.613 32.2384 119.077 31.6995 118.49C31.4895 118.27 31.2795 118.03 31.0795 117.79C30.5861 118.334 30.0511 118.839 29.4795 119.3C28.5143 120.085 27.4481 120.738 26.3095 121.24C25.4693 121.605 24.5951 121.887 23.6995 122.08C22.8087 122.27 21.9005 122.368 20.9895 122.37C20.0571 122.367 19.128 122.26 18.2195 122.05C17.3161 121.839 16.4402 121.523 15.6095 121.11C14.6142 120.619 13.6893 119.997 12.8595 119.26C12.3911 118.871 11.95 118.45 11.5395 118C11.3095 118.27 11.0695 118.53 10.8295 118.78C10.27 119.369 9.65743 119.904 8.99951 120.38C8.13704 121.029 7.1878 121.554 6.17951 121.94C5.21777 122.306 4.20645 122.525 3.17951 122.59C2.82313 122.61 2.4659 122.61 2.10951 122.59C1.78951 122.59 1.46951 122.59 1.10951 122.49C0.810611 122.477 0.528249 122.349 0.321406 122.133C0.114563 121.917 -0.000764064 121.629 -0.000486015 121.33V118.42C-0.0102547 118.337 -0.0102547 118.253 -0.000486015 118.17C0.0665179 117.868 0.250359 117.605 0.510836 117.438C0.771314 117.271 1.08723 117.215 1.38951 117.28C1.63001 117.334 1.87393 117.37 2.11951 117.39C2.35577 117.41 2.59326 117.41 2.82951 117.39C3.35003 117.358 3.86261 117.247 4.34951 117.06C4.89359 116.845 5.40516 116.556 5.86951 116.2C6.52396 115.7 7.115 115.123 7.62951 114.48C8.27018 113.704 8.84232 112.875 9.33951 112C9.45037 111.782 9.59555 111.582 9.76951 111.41L9.84951 111.33C10.1528 111.045 10.52 110.838 10.9202 110.724C11.3204 110.611 11.742 110.595 12.1495 110.678C12.5571 110.762 12.9387 110.941 13.2624 111.203C13.586 111.464 13.8422 111.799 14.0095 112.18C14.4192 113.137 14.9796 114.021 15.6695 114.8C16.2867 115.493 17.0298 116.064 17.8595 116.48C18.3301 116.712 18.827 116.887 19.3395 117C19.8641 117.121 20.401 117.182 20.9395 117.18C21.4839 117.179 22.0267 117.122 22.5595 117.01C23.1126 116.888 23.652 116.71 24.1695 116.48C25.144 116.05 26.0345 115.451 26.7995 114.71C27.5961 113.922 28.2552 113.006 28.7495 112C28.8669 111.737 29.0255 111.493 29.2195 111.28C29.4314 111.047 29.686 110.857 29.9695 110.72C30.5683 110.433 31.254 110.386 31.8862 110.589C32.5184 110.792 33.0491 111.229 33.3695 111.81L33.4395 111.93C33.8348 112.746 34.3069 113.523 34.8495 114.25C35.3293 114.912 35.9018 115.501 36.5495 116C37.1399 116.433 37.7945 116.77 38.4895 117C39.2478 117.26 40.0389 117.411 40.8395 117.45H41.0595H41.2995C42.0164 117.587 42.7527 117.587 43.4695 117.45C44.0647 117.315 44.6261 117.059 45.1195 116.7H45.1895C45.8293 116.2 46.3832 115.599 46.8295 114.92C47.4126 114.004 47.8891 113.024 48.2495 112C48.3692 111.71 48.5383 111.442 48.7495 111.21C48.9314 111.005 49.1439 110.83 49.3795 110.69L49.5095 110.62C49.8168 110.465 50.152 110.373 50.4954 110.349C50.8388 110.325 51.1836 110.369 51.5095 110.48C51.8341 110.588 52.134 110.759 52.3916 110.984C52.6491 111.209 52.8592 111.483 53.0095 111.79C53.5802 112.948 54.3219 114.013 55.2095 114.95C55.9753 115.757 56.884 116.415 57.8895 116.89C58.3632 117.105 58.8597 117.266 59.3695 117.37C59.8619 117.479 60.3654 117.529 60.8695 117.52C61.8589 117.493 62.8296 117.243 63.7095 116.79C64.5616 116.36 65.325 115.773 65.9595 115.06C66.6515 114.288 67.2214 113.414 67.6495 112.47V112.4C67.7459 112.208 67.8633 112.027 67.9995 111.86C68.1204 111.718 68.2543 111.587 68.3995 111.47L68.4795 111.4C69.0326 110.996 69.7214 110.824 70.3995 110.92C71.0462 111.019 71.6318 111.358 72.0395 111.87L72.1095 111.94C72.8812 112.994 73.7445 113.978 74.6895 114.88C75.4318 115.597 76.2578 116.221 77.1495 116.74H77.2295C77.7845 117.051 78.3756 117.293 78.9895 117.46C79.5245 117.599 80.0774 117.656 80.6295 117.63C81.1533 117.598 81.6692 117.487 82.1595 117.3C82.6996 117.077 83.2101 116.788 83.6795 116.44C84.334 115.94 84.925 115.363 85.4395 114.72C86.0724 113.94 86.6315 113.103 87.1095 112.22C87.2255 112.005 87.3701 111.806 87.5395 111.63L87.6195 111.56C87.9221 111.275 88.2886 111.067 88.6883 110.953C89.088 110.838 89.5093 110.822 89.9168 110.904C90.3242 110.986 90.706 111.165 91.0301 111.425C91.3542 111.686 91.6112 112.02 91.7795 112.4C92.1868 113.361 92.7475 114.249 93.4395 115.03C94.0569 115.721 94.8002 116.287 95.6295 116.7C96.0997 116.936 96.5967 117.114 97.1095 117.23C97.6343 117.351 98.1711 117.411 98.7095 117.41C99.2545 117.41 99.7978 117.35 100.33 117.23C100.884 117.116 101.423 116.942 101.94 116.71C102.915 116.277 103.805 115.675 104.57 114.93C105.382 114.159 106.058 113.257 106.57 112.26C106.682 111.997 106.841 111.756 107.04 111.55C107.256 111.319 107.509 111.126 107.79 110.98C108.389 110.688 109.078 110.638 109.713 110.841C110.348 111.044 110.881 111.484 111.2 112.07L111.26 112.18C111.653 113.001 112.125 113.781 112.67 114.51C113.146 115.142 113.708 115.704 114.34 116.18C114.931 116.611 115.585 116.949 116.28 117.18C116.606 117.295 116.94 117.389 117.28 117.46V122.73L117.3 122.82ZM34.3695 97C23.9995 88.76 16.9995 75.29 17.0795 56.12C17.0339 55.6527 17.1541 55.1841 17.4192 54.7965C17.6843 54.4089 18.0774 54.127 18.5295 54L30.5295 50.38V38.58C30.5401 34.3117 32.2431 30.2218 35.2651 27.2073C38.287 24.1929 42.3811 22.5 46.6495 22.5H54.6495V3.88004C54.6477 3.37045 54.7476 2.86563 54.9433 2.39513C55.1391 1.92464 55.4268 1.49794 55.7895 1.14004C56.1511 0.776691 56.5813 0.488809 57.0551 0.293108C57.5289 0.0974078 58.0369 -0.00221091 58.5495 3.72186e-05H72.5495C73.0588 0.000430969 73.5629 0.101332 74.0331 0.296957C74.5033 0.492582 74.9303 0.779083 75.2895 1.14004L75.3795 1.24004C76.0325 1.96325 76.3895 2.90569 76.3795 3.88004V22.5H89.6395C90.8231 22.505 91.9941 22.7434 93.0854 23.2016C94.1768 23.6597 95.167 24.3286 95.9995 25.17L96.1195 25.29C97.7464 26.9762 98.6567 29.227 98.6595 31.57V50.46C102.6 51.62 106.54 52.71 110.48 53.64C110.907 53.7422 111.291 53.9791 111.573 54.3158C111.856 54.6525 112.023 55.0712 112.05 55.51C112.783 64.2942 111.157 73.1148 107.34 81.06C105.294 85.5362 102.572 89.6712 99.2695 93.32C99.5374 93.5673 99.7518 93.8668 99.8995 94.2C100.311 95.1588 100.871 96.0465 101.56 96.83C102.179 97.5183 102.922 98.0847 103.75 98.5C104.221 98.7325 104.718 98.9103 105.23 99.03C105.754 99.1502 106.291 99.2106 106.83 99.21C107.392 99.2032 107.953 99.1327 108.5 99C109.052 98.8784 109.591 98.7043 110.11 98.48C111.084 98.0451 111.974 97.4426 112.74 96.7C113.553 95.9297 114.229 95.0269 114.74 94.03C114.859 93.771 115.018 93.5316 115.21 93.32C115.427 93.093 115.68 92.9038 115.96 92.76C116.383 92.5579 116.853 92.475 117.32 92.52V100.2C117.21 100.08 117.1 99.95 117 99.82C116.506 100.367 115.971 100.875 115.4 101.34C114.435 102.119 113.373 102.768 112.24 103.27C111.397 103.64 110.519 103.925 109.62 104.12C108.732 104.307 107.827 104.401 106.92 104.4C105.987 104.402 105.058 104.298 104.15 104.09C103.246 103.879 102.37 103.563 101.54 103.15C100.541 102.665 99.615 102.042 98.7895 101.3C98.3183 100.903 97.8802 100.468 97.4795 100C97.2495 100.27 97.0095 100.54 96.7695 100.79C96.2015 101.379 95.5898 101.924 94.9395 102.42C94.0745 103.071 93.126 103.602 92.1195 104C91.1587 104.367 90.1466 104.583 89.1195 104.64C88.0703 104.698 87.0184 104.597 85.9995 104.34C84.93 104.071 83.901 103.66 82.9395 103.12C81.962 102.581 81.0437 101.941 80.1995 101.21C79.6293 100.733 79.0852 100.226 78.5695 99.69C78.1253 100.242 77.6406 100.76 77.1195 101.24C76.2532 102.032 75.2846 102.705 74.2395 103.24C73.448 103.634 72.6166 103.943 71.7595 104.16C70.0399 104.59 68.2456 104.628 66.5095 104.27C65.6274 104.087 64.7686 103.805 63.9495 103.43C62.7942 102.917 61.7169 102.244 60.7495 101.43C60.176 100.939 59.638 100.407 59.1395 99.84C58.9223 100.159 58.6887 100.466 58.4395 100.76C57.8671 101.444 57.2197 102.061 56.5095 102.6C55.4516 103.402 54.2397 103.977 52.9495 104.29C51.6126 104.605 50.228 104.662 48.8695 104.46C47.5467 104.392 46.2404 104.136 44.9895 103.7C43.8027 103.282 42.6866 102.685 41.6795 101.93C41.0476 101.445 40.4557 100.91 39.9095 100.33C39.6995 100.1 39.4995 99.87 39.2995 99.63C38.8036 100.172 38.2689 100.676 37.6995 101.14C36.7026 101.906 35.6058 102.531 34.4395 103C32.7641 103.744 30.9526 104.132 29.1195 104.14C28.1871 104.138 27.2578 104.031 26.3495 103.82C25.4456 103.61 24.5696 103.295 23.7395 102.88C22.7445 102.382 21.8226 101.749 20.9995 101C20.5406 100.593 20.1127 100.151 19.7195 99.68C19.4795 99.96 19.2495 100.22 19.0095 100.47C18.4441 101.061 17.8322 101.607 17.1795 102.1C16.3158 102.747 15.3668 103.272 14.3595 103.66C13.3978 104.026 12.3865 104.245 11.3595 104.31C10.2933 104.365 9.22482 104.261 8.18951 104C7.11678 103.731 6.08447 103.321 5.11951 102.78C4.25481 102.297 3.43489 101.738 2.66951 101.11C1.85074 100.462 1.07882 99.7569 0.359514 99C0.24075 98.8871 0.147263 98.7503 0.0852114 98.5986C0.0231599 98.4469 -0.00604733 98.2838 -0.000486015 98.12V93.76C-0.00188209 93.5505 0.0530006 93.3445 0.15843 93.1635C0.263859 92.9824 0.415966 92.833 0.598865 92.7308C0.781763 92.6286 0.988743 92.5775 1.19818 92.5826C1.40763 92.5877 1.61185 92.649 1.78951 92.76C1.92498 92.8446 2.05221 92.9417 2.16951 93.05C2.26621 93.1298 2.35345 93.2204 2.42951 93.32L2.49951 93.4C3.27492 94.4727 4.14147 95.4764 5.08951 96.4C5.82913 97.1126 6.65169 97.7337 7.53951 98.25H7.61951C8.17573 98.5733 8.7704 98.8253 9.38951 99C10.4331 99.2838 11.5399 99.2277 12.5495 98.84C13.0906 98.6275 13.6016 98.3451 14.0695 98C14.724 97.5004 15.315 96.9228 15.8295 96.28C16.4624 95.5002 17.0215 94.6633 17.4995 93.78C17.6167 93.566 17.765 93.3706 17.9395 93.2L18.0095 93.12C18.2269 92.9163 18.4771 92.7506 18.7495 92.63C19.0619 92.4925 19.3984 92.418 19.7397 92.411C20.081 92.4039 20.4203 92.4644 20.7381 92.5889C21.056 92.7134 21.3461 92.8996 21.5917 93.1366C21.8373 93.3736 22.0337 93.6569 22.1695 93.97C22.5832 94.9244 23.1433 95.8083 23.8295 96.59C24.444 97.2649 25.1802 97.8179 25.9995 98.22C26.4692 98.4569 26.9663 98.6349 27.4795 98.75C28.0044 98.8702 28.5411 98.9306 29.0795 98.93C29.6272 98.9284 30.1733 98.8715 30.7095 98.76C31.2618 98.6349 31.8009 98.4574 32.3195 98.23C33.036 97.9032 33.7081 97.4865 34.3195 96.99L34.3695 97ZM73.5495 10H57.5495V22.5H73.5495V9.94004V10ZM59.5995 41.68L63.5995 40.49C63.9504 40.3994 64.3186 40.3994 64.6695 40.49L64.9295 40.55L65.1995 40.6L94.6395 47.8V31.57C94.6375 30.2986 94.1512 29.0757 93.2795 28.15L93.1795 28.06C92.2498 27.1327 90.9926 26.6082 89.6795 26.6H46.6795C43.4969 26.6 40.4447 27.8643 38.1942 30.1148C35.9438 32.3652 34.6795 35.4174 34.6795 38.6V47.77L59.5995 41.68ZM64.5995 44.68L60.7895 45.61L21.1595 57.49C21.1932 61.8321 21.6996 66.1576 22.6695 70.39L63.7195 61.76C64.003 61.6998 64.296 61.6998 64.5795 61.76L106.82 70.62C107.856 66.2498 108.283 61.7573 108.09 57.27C100.88 55.5 93.6895 53.27 86.4995 51C79.3095 48.73 71.8995 46.43 64.6295 44.67L64.5995 44.68Z" fill="white"/>
</svg>
