<?xml version="1.0" encoding="UTF-8"?>
<svg id="Layer_2" xmlns="http://www.w3.org/2000/svg" viewBox="0 0 396.79 397.07">
  <defs>
    <style>
      .cls-1 {
        fill: #fff;
      }
    </style>
  </defs>
  <g id="Layer_1-2" data-name="Layer_1">
    <g>
      <path class="cls-1" d="M0,201.62c12.03-28.54,32.41-52.27,43.86-81.63,13.28-34.04,40.49-57.97,72.8-75.41,7.78-4.2,15.57-7.86,21.12,2.45,5.16,9.58-1.89,14.27-8.92,18.13-31.85,17.48-55.24,42.49-69.15,76.34,17.07,1.79,29.42-2.96,37.11-19.61,3.7-8,11.81-14.18,18.58-20.49,5.58-5.2,12.21-5.72,17.7.53,5.07,5.78,3.39,11.52-1.53,16.51-8.32,8.43-17,16.55-21.99,26.95-.6,2.86,1.33,3.14,2.62,3.45,13.86,3.26,17.3,8.77,10.16,23.28-7.83,15.91-7.16,34.23-.77,51.34,2.65,7.09,4.11,11.25-6.4,11.1-32.55-.46-65.12-.28-97.68-.1-7.31.04-12.76-2.96-17.49-8.03v-24.82Z"/>
      <path class="cls-1" d="M200.72,394.49c-11.27-.79-21.69-5.3-29.2-12.8-11.04-11.02-24.36-16.2-38.29-21.67-38.89-15.27-68.18-41.8-88.22-78.51-4.03-7.38-9.16-15.22.99-21.41,11.26-6.86,15.69,2.42,20.01,10.04,14.02,24.78,32.69,45.03,57.86,58.57,4.45,2.39,11.58,10.99,14.94,3.38,2.99-6.77,6.1-18.13-5.63-24.11-11.57-5.89-21.59-13.98-30.14-23.86-5.1-5.9-9.03-12.07-2.4-18.94,7.27-7.53,13.85-3.84,19.85,2.44,3.56,3.73,6.99,7.69,11.03,10.85,8.17,6.4,17.22,16.13,21.32-3.65.93-4.49,4.1-6.9,9.21-4.11,22.84,12.47,46.34,11.11,71.28,1.7,0,37.97-.24,74.55.19,111.13.09,7.97-5.34,10.1-10.13,13.52h-6.2c-5.05-3.66-11.26.09-16.46-2.58Z"/>
      <path class="cls-1" d="M200.72,394.49c5.73-.67,11.63-2.47,16.46,2.58h-15.51c-.63-.74-.95-1.6-.95-2.58Z"/>
      <path class="cls-1" d="M336.79,257.09c-18.96-3.95-29.71,3.97-37.31,19.8-3.41,7.09-10.76,12.4-16.67,18.15-5.85,5.68-12.51,7.82-18.84.81-5.73-6.34-3.46-12.26,2.05-17.62,4.08-3.96,8.48-7.7,11.95-12.15,6.23-7.99,16.95-17.13-3.29-21.43-4.51-.96-7.3-3.61-4.4-8.91,12.5-22.83,11.67-46.35,2.03-71.66,38.34,0,75.36-.16,112.38.12,9.1.07,12.12,6.45,12.09,14.75-.09,21.04-6.66,39.83-21.55,54.7-5.83,5.82-9.05,12.15-11.46,19.55-13.86,42.62-40.44,74.98-79.3,97.13-8.08,4.61-17.78,13.27-25.11.12-6.81-12.21,5.05-16.19,12.61-20.5,29.8-16.95,51.15-41.11,64.81-72.87Z"/>
      <path class="cls-1" d="M255.89,59.88c-2.68,18.55,4.34,29.77,20.25,37.57,7.93,3.89,13.91,12.11,20.2,18.9,4.7,5.07,5.64,11.17.06,16.47-6.03,5.73-12.13,4.65-17.67-.98-8.31-8.45-16.43-17.09-26.79-21.96-2.98-.72-3.3,1.23-3.61,2.53-3.38,13.96-9.12,16.71-23.52,10.1-18.7-8.6-39.25-7.05-57.43,1.72-4.42-1.83-3.71-4.68-3.71-7.02-.06-33.06.2-66.12-.17-99.17-.15-13.24,5.12-18.79,18.58-17.94,18.76,1.18,35.45,7.16,48.84,20.27,6.52,6.38,13.6,10.49,22.13,13.22,44.38,14.21,77.11,42.48,99.48,83.13,4.22,7.67,8.19,15.71-1.97,21.27-10.18,5.57-14.95-2.29-19.08-9.82-17.22-31.44-42.22-54.21-75.57-68.28Z"/>
      <path class="cls-1" d="M257.01,198.89c-.12,31.5-26.75,58.1-58.3,58.23-31.47.13-58.29-26.29-58.69-57.82-.4-31.9,27.25-59.58,59.05-59.13,31.52.44,58.05,27.34,57.93,58.72Z"/>
    </g>
  </g>
</svg>